<svg width="20" height="20" viewBox="0 0 20 20" fill="none" xmlns="http://www.w3.org/2000/svg">
<mask id="mask0_6010_18518" style="mask-type:alpha" maskUnits="userSpaceOnUse" x="0" y="0" width="20" height="20">
<rect width="20" height="20" fill="#D9D9D9"/>
</mask>
<g mask="url(#mask0_6010_18518)">
<path d="M16.5 18.8335L13 15.3752C12.5139 15.5279 12.0243 15.6425 11.5313 15.7189C11.0382 15.7953 10.5278 15.8335 10 15.8335C7.90278 15.8335 6.03473 15.2536 4.39584 14.0939C2.75695 12.9342 1.56945 11.4307 0.833336 9.5835C1.125 8.84739 1.49306 8.16336 1.9375 7.53141C2.38195 6.89947 2.88889 6.3335 3.45834 5.8335L1.16667 3.50016L2.33334 2.3335L17.6667 17.6668L16.5 18.8335ZM10 13.3335C10.1528 13.3335 10.2951 13.3266 10.4271 13.3127C10.559 13.2988 10.7014 13.271 10.8542 13.2293L6.35417 8.72933C6.3125 8.88211 6.28473 9.02447 6.27084 9.15641C6.25695 9.28836 6.25 9.43072 6.25 9.5835C6.25 10.6252 6.61459 11.5106 7.34375 12.2397C8.07292 12.9689 8.95834 13.3335 10 13.3335ZM16.0833 13.7085L13.4375 11.0835C13.5347 10.8474 13.6111 10.6078 13.6667 10.3647C13.7222 10.1217 13.75 9.86127 13.75 9.5835C13.75 8.54183 13.3854 7.65641 12.6563 6.92725C11.9271 6.19808 11.0417 5.8335 10 5.8335C9.72223 5.8335 9.46181 5.86127 9.21875 5.91683C8.9757 5.97239 8.73611 6.05572 8.5 6.16683L6.375 4.04183C6.94445 3.80572 7.52778 3.62864 8.125 3.51058C8.72223 3.39252 9.34723 3.3335 10 3.3335C12.0972 3.3335 13.9653 3.91336 15.6042 5.07308C17.2431 6.2328 18.4306 7.73627 19.1667 9.5835C18.8472 10.4029 18.4271 11.1634 17.9063 11.8647C17.3854 12.5661 16.7778 13.1807 16.0833 13.7085ZM12.2292 9.87516L9.72917 7.37516C10.1181 7.30572 10.4757 7.33697 10.8021 7.46891C11.1285 7.60086 11.4097 7.79183 11.6458 8.04183C11.8819 8.29183 12.0521 8.58002 12.1563 8.90641C12.2604 9.2328 12.2847 9.55572 12.2292 9.87516Z" fill="#44546F"/>
</g>
</svg>
