<svg width="20" height="20" viewBox="0 0 20 20" fill="none" xmlns="http://www.w3.org/2000/svg">
<mask id="mask0_6010_8321" style="mask-type:alpha" maskUnits="userSpaceOnUse" x="0" y="0" width="20" height="20">
<rect width="20" height="20" fill="#D9D9D9"/>
</mask>
<g mask="url(#mask0_6010_8321)">
<path d="M10 14.1667C10.2361 14.1667 10.434 14.0869 10.5938 13.9272C10.7535 13.7674 10.8333 13.5695 10.8333 13.3334C10.8333 13.0973 10.7535 12.8994 10.5938 12.7397C10.434 12.5799 10.2361 12.5001 10 12.5001C9.76389 12.5001 9.56598 12.5799 9.40626 12.7397C9.24653 12.8994 9.16667 13.0973 9.16667 13.3334C9.16667 13.5695 9.24653 13.7674 9.40626 13.9272C9.56598 14.0869 9.76389 14.1667 10 14.1667ZM9.16667 10.8334H10.8333V5.83341H9.16667V10.8334ZM10 18.3334C8.84723 18.3334 7.76389 18.1147 6.75 17.6772C5.73612 17.2397 4.85417 16.6459 4.10417 15.8959C3.35417 15.1459 2.76042 14.264 2.32292 13.2501C1.88542 12.2362 1.66667 11.1529 1.66667 10.0001C1.66667 8.8473 1.88542 7.76397 2.32292 6.75008C2.76042 5.73619 3.35417 4.85425 4.10417 4.10425C4.85417 3.35425 5.73612 2.7605 6.75 2.323C7.76389 1.8855 8.84723 1.66675 10 1.66675C11.1528 1.66675 12.2361 1.8855 13.25 2.323C14.2639 2.7605 15.1458 3.35425 15.8958 4.10425C16.6458 4.85425 17.2396 5.73619 17.6771 6.75008C18.1146 7.76397 18.3333 8.8473 18.3333 10.0001C18.3333 11.1529 18.1146 12.2362 17.6771 13.2501C17.2396 14.264 16.6458 15.1459 15.8958 15.8959C15.1458 16.6459 14.2639 17.2397 13.25 17.6772C12.2361 18.1147 11.1528 18.3334 10 18.3334Z" fill="#C9372C"/>
</g>
</svg>
