<svg width="20" height="20" viewBox="0 0 20 20" fill="none" xmlns="http://www.w3.org/2000/svg">
<mask id="mask0_6004_5170" style="mask-type:alpha" maskUnits="userSpaceOnUse" x="0" y="0" width="20" height="20">
<rect width="20" height="20" fill="#D9D9D9"/>
</mask>
<g mask="url(#mask0_6004_5170)">
<path d="M7 14.1667L10 11.1667L13 14.1667L14.1667 13.0001L11.1667 10.0001L14.1667 7.00008L13 5.83341L10 8.83342L7 5.83341L5.83333 7.00008L8.83333 10.0001L5.83333 13.0001L7 14.1667ZM10 18.3334C8.84722 18.3334 7.76389 18.1147 6.75 17.6772C5.73611 17.2397 4.85416 16.6459 4.10416 15.8959C3.35416 15.1459 2.76041 14.264 2.32291 13.2501C1.88541 12.2362 1.66666 11.1529 1.66666 10.0001C1.66666 8.8473 1.88541 7.76397 2.32291 6.75008C2.76041 5.73619 3.35416 4.85425 4.10416 4.10425C4.85416 3.35425 5.73611 2.7605 6.75 2.323C7.76389 1.8855 8.84722 1.66675 10 1.66675C11.1528 1.66675 12.2361 1.8855 13.25 2.323C14.2639 2.7605 15.1458 3.35425 15.8958 4.10425C16.6458 4.85425 17.2396 5.73619 17.6771 6.75008C18.1146 7.76397 18.3333 8.8473 18.3333 10.0001C18.3333 11.1529 18.1146 12.2362 17.6771 13.2501C17.2396 14.264 16.6458 15.1459 15.8958 15.8959C15.1458 16.6459 14.2639 17.2397 13.25 17.6772C12.2361 18.1147 11.1528 18.3334 10 18.3334Z" fill="#758195"/>
</g>
</svg>
