<svg width="21" height="20" viewBox="0 0 21 20" fill="none" xmlns="http://www.w3.org/2000/svg">
<mask id="mask0_10_5665" style="mask-type:alpha" maskUnits="userSpaceOnUse" x="0" y="0" width="21" height="20">
<rect x="0.5" width="20" height="20" fill="#D9D9D9"/>
</mask>
<g mask="url(#mask0_10_5665)">
<path d="M9.33329 13.8333L15.2083 7.95832L14.0416 6.79166L9.33329 11.5L6.95829 9.12499L5.79163 10.2917L9.33329 13.8333ZM10.5 18.3333C9.34718 18.3333 8.26385 18.1146 7.24996 17.6771C6.23607 17.2396 5.35413 16.6458 4.60413 15.8958C3.85413 15.1458 3.26038 14.2639 2.82288 13.25C2.38538 12.2361 2.16663 11.1528 2.16663 9.99999C2.16663 8.84721 2.38538 7.76388 2.82288 6.74999C3.26038 5.7361 3.85413 4.85416 4.60413 4.10416C5.35413 3.35416 6.23607 2.76041 7.24996 2.32291C8.26385 1.88541 9.34718 1.66666 10.5 1.66666C11.6527 1.66666 12.7361 1.88541 13.75 2.32291C14.7638 2.76041 15.6458 3.35416 16.3958 4.10416C17.1458 4.85416 17.7395 5.7361 18.177 6.74999C18.6145 7.76388 18.8333 8.84721 18.8333 9.99999C18.8333 11.1528 18.6145 12.2361 18.177 13.25C17.7395 14.2639 17.1458 15.1458 16.3958 15.8958C15.6458 16.6458 14.7638 17.2396 13.75 17.6771C12.7361 18.1146 11.6527 18.3333 10.5 18.3333Z" fill="#091E42" fill-opacity="0.309804"/>
</g>
</svg>
