<svg width="17" height="16" viewBox="0 0 17 16" fill="none" xmlns="http://www.w3.org/2000/svg">
<mask id="mask0_11_33" style="mask-type:alpha" maskUnits="userSpaceOnUse" x="0" y="0" width="17" height="16">
<rect x="0.5" width="16" height="16" fill="#D9D9D9"/>
</mask>
<g mask="url(#mask0_11_33)">
<path d="M8.49998 14.6833C8.32221 14.6833 8.15276 14.65 7.99165 14.5833C7.83054 14.5167 7.68332 14.4222 7.54998 14.3L2.19998 8.94998C2.07776 8.81665 1.98332 8.66943 1.91665 8.50832C1.84998 8.34721 1.81665 8.17776 1.81665 7.99998C1.81665 7.82221 1.84998 7.64998 1.91665 7.48332C1.98332 7.31665 2.07776 7.17221 2.19998 7.04998L7.54998 1.69998C7.68332 1.56665 7.83054 1.46943 7.99165 1.40832C8.15276 1.34721 8.32221 1.31665 8.49998 1.31665C8.67776 1.31665 8.84998 1.34721 9.01665 1.40832C9.18332 1.46943 9.32776 1.56665 9.44998 1.69998L14.8 7.04998C14.9333 7.17221 15.0305 7.31665 15.0917 7.48332C15.1528 7.64998 15.1833 7.82221 15.1833 7.99998C15.1833 8.17776 15.1528 8.34721 15.0917 8.50832C15.0305 8.66943 14.9333 8.81665 14.8 8.94998L9.44998 14.3C9.32776 14.4222 9.18332 14.5167 9.01665 14.5833C8.84998 14.65 8.67776 14.6833 8.49998 14.6833ZM7.83332 8.66665H9.16665V4.66665H7.83332V8.66665ZM8.49998 10.6667C8.68887 10.6667 8.84721 10.6028 8.97498 10.475C9.10276 10.3472 9.16665 10.1889 9.16665 9.99998C9.16665 9.8111 9.10276 9.65276 8.97498 9.52498C8.84721 9.39721 8.68887 9.33332 8.49998 9.33332C8.3111 9.33332 8.15276 9.39721 8.02498 9.52498C7.89721 9.65276 7.83332 9.8111 7.83332 9.99998C7.83332 10.1889 7.89721 10.3472 8.02498 10.475C8.15276 10.6028 8.3111 10.6667 8.49998 10.6667Z" fill="#C9372C"/>
</g>
</svg>
