<svg width="20" height="20" viewBox="0 0 20 20" fill="none" xmlns="http://www.w3.org/2000/svg">
<mask id="mask0_6010_18519" style="mask-type:alpha" maskUnits="userSpaceOnUse" x="0" y="0" width="20" height="20">
<rect width="20" height="20" fill="#D9D9D9"/>
</mask>
<g mask="url(#mask0_6010_18519)">
<path d="M10 13.3333C11.0417 13.3333 11.9271 12.9687 12.6563 12.2395C13.3854 11.5103 13.75 10.6249 13.75 9.58325C13.75 8.54158 13.3854 7.65617 12.6563 6.927C11.9271 6.19784 11.0417 5.83325 10 5.83325C8.95834 5.83325 8.07292 6.19784 7.34375 6.927C6.61459 7.65617 6.25 8.54158 6.25 9.58325C6.25 10.6249 6.61459 11.5103 7.34375 12.2395C8.07292 12.9687 8.95834 13.3333 10 13.3333ZM10 11.8333C9.375 11.8333 8.84375 11.6145 8.40625 11.177C7.96875 10.7395 7.75 10.2083 7.75 9.58325C7.75 8.95825 7.96875 8.427 8.40625 7.9895C8.84375 7.552 9.375 7.33325 10 7.33325C10.625 7.33325 11.1563 7.552 11.5938 7.9895C12.0313 8.427 12.25 8.95825 12.25 9.58325C12.25 10.2083 12.0313 10.7395 11.5938 11.177C11.1563 11.6145 10.625 11.8333 10 11.8333ZM10 15.8333C7.97223 15.8333 6.125 15.2673 4.45834 14.1353C2.79167 13.0034 1.58334 11.486 0.833336 9.58325C1.58334 7.68047 2.79167 6.16311 4.45834 5.03117C6.125 3.89922 7.97223 3.33325 10 3.33325C12.0278 3.33325 13.875 3.89922 15.5417 5.03117C17.2083 6.16311 18.4167 7.68047 19.1667 9.58325C18.4167 11.486 17.2083 13.0034 15.5417 14.1353C13.875 15.2673 12.0278 15.8333 10 15.8333Z" fill="#44546F"/>
</g>
</svg>
